<svg width="29" height="29" viewBox="0 0 29 29" fill="none" xmlns="http://www.w3.org/2000/svg">
<path d="M14.5239 3.6425C10.5703 3.6425 7.35725 6.85555 7.35725 10.8092V14.2611C7.35725 14.9897 7.04669 16.1006 6.67641 16.7217L5.3028 19.0031C4.45475 20.4125 5.04002 21.9772 6.5928 22.5028C11.7409 24.2228 17.295 24.2228 22.4431 22.5028C23.8884 22.025 24.5214 20.3169 23.7331 19.0031L22.3595 16.7217C22.0011 16.1006 21.6906 14.9897 21.6906 14.2611V10.8092C21.6906 6.8675 18.4656 3.6425 14.5239 3.6425Z" stroke="#292D32" stroke-width="1.5" stroke-miterlimit="10" stroke-linecap="round"></path>
<path d="M16.7337 3.98889C16.3634 3.88139 15.9812 3.79778 15.587 3.75C14.4403 3.60666 13.3414 3.69028 12.3142 3.98889C12.6606 3.105 13.5206 2.48389 14.5239 2.48389C15.5273 2.48389 16.3873 3.105 16.7337 3.98889Z" stroke="#292D32" stroke-width="1.5" stroke-miterlimit="10" stroke-linecap="round" stroke-linejoin="round"></path>
<path d="M18.1072 22.9328C18.1072 24.9036 16.4947 26.5161 14.5239 26.5161C13.5444 26.5161 12.6367 26.11 11.9917 25.465C11.3467 24.82 10.9406 23.9122 10.9406 22.9328" stroke="#292D32" stroke-width="1.5" stroke-miterlimit="10"></path>
</svg>
